<svg width="24" height="24" viewBox="0 0 24 24" fill="none" xmlns="http://www.w3.org/2000/svg">
<g clip-path="url(#clip0_84_1117)">
<path d="M4.24739 8.99426C3.89615 8.61109 3.92204 8.01574 4.30521 7.6645C4.68838 7.31326 5.28373 7.33914 5.63497 7.72231L12 14.666L18.365 7.72231C18.7163 7.33914 19.3116 7.31326 19.6948 7.6645C20.078 8.01574 20.1038 8.61109 19.7526 8.99426L12.7015 16.6864C12.6899 16.6993 12.6779 16.7119 12.6655 16.7243C12.5876 16.8024 12.499 16.864 12.4042 16.9091C12.148 17.0309 11.8498 17.0297 11.5958 16.9091C11.501 16.864 11.4124 16.8024 11.3345 16.7243C11.3221 16.7119 11.3101 16.6993 11.2985 16.6864L4.24739 8.99426Z" fill="#1E2125"/>
</g>
<defs>
<clipPath id="clip0_84_1117">
<rect width="24" height="24" fill="white"/>
</clipPath>
</defs>
</svg>
